<svg width="24" height="24" viewBox="0 0 24 24" fill="none" xmlns="http://www.w3.org/2000/svg">
<path fill-rule="evenodd" clip-rule="evenodd" d="M8 2.8C8 2.91046 8.08954 3 8.2 3H10.8C10.9105 3 11 2.91046 11 2.8V2.2C11 2.08954 10.9105 2 10.8 2H8.2C8.08954 2 8 2.08954 8 2.2V2.8ZM21.2 8C21.0895 8 21 8.08954 21 8.2V10.8C21 10.9105 21.0895 11 21.2 11H21.8C21.9105 11 22 10.9105 22 10.8V8.2C22 8.08954 21.9105 8 21.8 8H21.2ZM2.2 11C2.08954 11 2 10.9105 2 10.8V8.2C2 8.08954 2.08954 8 2.2 8H2.8C2.91046 8 3 8.08954 3 8.2L3 10.8C3 10.9105 2.91046 11 2.8 11H2.2ZM8 21.2C8 21.0895 8.08954 21 8.2 21H10.8C10.9105 21 11 21.0895 11 21.2V21.8C11 21.9105 10.9105 22 10.8 22H8.2C8.08954 22 8 21.9105 8 21.8V21.2ZM16 2.8C16 2.91046 15.9105 3 15.8 3H13.2C13.0895 3 13 2.91046 13 2.8V2.2C13 2.08954 13.0895 2 13.2 2H15.8C15.9105 2 16 2.08954 16 2.2V2.8ZM21.2 13C21.0895 13 21 13.0895 21 13.2V15.8C21 15.9105 21.0895 16 21.2 16H21.8C21.9105 16 22 15.9105 22 15.8V13.2C22 13.0895 21.9105 13 21.8 13H21.2ZM2.2 16C2.08954 16 2 15.9105 2 15.8V13.2C2 13.0895 2.08954 13 2.2 13H2.8C2.91046 13 3 13.0895 3 13.2L3 15.8C3 15.9105 2.91046 16 2.8 16H2.2ZM13 21.2C13 21.0895 13.0895 21 13.2 21H15.8C15.9105 21 16 21.0895 16 21.2V21.8C16 21.9105 15.9105 22 15.8 22H13.2C13.0895 22 13 21.9105 13 21.8V21.2ZM3 3.2C3 3.08954 3.08954 3 3.2 3H5.8C5.91046 3 6 2.91046 6 2.8V2.2C6 2.08954 5.91046 2 5.8 2H3H2.2C2.08954 2 2 2.08954 2 2.2V3V5.8C2 5.91046 2.08954 6 2.2 6H2.8C2.91046 6 3 5.91046 3 5.8L3 3.2ZM6 21.2C6 21.0895 5.91046 21 5.8 21H3.2C3.08954 21 3 20.9105 3 20.8L3 18.2C3 18.0895 2.91046 18 2.8 18H2.2C2.08954 18 2 18.0895 2 18.2V21V21.8C2 21.9105 2.08954 22 2.2 22H3H5.8C5.91046 22 6 21.9105 6 21.8V21.2ZM20.8 3C20.9105 3 21 3.08954 21 3.2V5.8C21 5.91046 21.0895 6 21.2 6H21.8C21.9105 6 22 5.91046 22 5.8V3V2.2C22 2.08954 21.9105 2 21.8 2H21H18.2C18.0895 2 18 2.08954 18 2.2V2.8C18 2.91046 18.0895 3 18.2 3L20.8 3ZM21.2 18C21.0895 18 21 18.0895 21 18.2V20.8C21 20.9105 20.9105 21 20.8 21H18.2C18.0895 21 18 21.0895 18 21.2V21.8C18 21.9105 18.0895 22 18.2 22H21H21.8C21.9105 22 22 21.9105 22 21.8V21V18.2C22 18.0895 21.9105 18 21.8 18H21.2Z" fill="black"/>
<path fill-rule="evenodd" clip-rule="evenodd" d="M11.1517 11.8585C11.2298 11.9366 11.2298 12.0633 11.1517 12.1414L5.78807 17.505C5.70997 17.5831 5.70997 17.7097 5.78807 17.7878L6.21233 18.2121C6.29044 18.2902 6.41707 18.2902 6.49518 18.2121L11.8588 12.8485C11.9369 12.7704 12.0635 12.7704 12.1416 12.8485L17.5052 18.2121C17.5833 18.2902 17.71 18.2902 17.7881 18.2121L18.2123 17.7878C18.2904 17.7097 18.2904 17.5831 18.2123 17.505L12.8487 12.1414C12.7706 12.0633 12.7706 11.9366 12.8487 11.8585L18.2123 6.49493C18.2904 6.41683 18.2904 6.2902 18.2123 6.21209L17.7881 5.78783C17.71 5.70972 17.5833 5.70972 17.5052 5.78783L12.1416 11.1514C12.0635 11.2295 11.9369 11.2295 11.8588 11.1514L6.49518 5.78783C6.41707 5.70972 6.29044 5.70972 6.21234 5.78783L5.78807 6.21209C5.70997 6.2902 5.70997 6.41683 5.78807 6.49493L11.1517 11.8585Z" fill="black"/>
</svg>
