<svg width="24" height="24" viewBox="0 0 24 24" fill="none" xmlns="http://www.w3.org/2000/svg">
<path fill-rule="evenodd" clip-rule="evenodd" d="M19.3635 3.00061C19.4739 3.00061 19.5635 2.91107 19.5635 2.80061V2.20061C19.5635 2.09015 19.4739 2.00061 19.3635 2.00061H15.7635C15.653 2.00061 15.5635 2.09015 15.5635 2.20061V2.80061C15.5635 2.91107 15.653 3.00061 15.7635 3.00061H16.8635C16.9739 3.00061 17.0635 3.09015 17.0635 3.20061V20.7997C17.0635 20.9102 16.9739 20.9997 16.8635 20.9997H15.7635C15.653 20.9997 15.5635 21.0893 15.5635 21.1997V21.7997C15.5635 21.9102 15.653 21.9997 15.7635 21.9997H19.3635C19.4739 21.9997 19.5635 21.9102 19.5635 21.7997V21.1997C19.5635 21.0893 19.4739 20.9997 19.3635 20.9997H18.2635C18.153 20.9997 18.0635 20.9102 18.0635 20.7997V3.20061C18.0635 3.09015 18.153 3.00061 18.2635 3.00061H19.3635ZM4 6H15.8635C15.9739 6 16.0635 6.08954 16.0635 6.2V6.8C16.0635 6.91046 15.9739 7 15.8635 7H4C3.44772 7 3 7.44772 3 8V17.0674C3 17.6197 3.44772 18.0674 4 18.0674H15.8635C15.9739 18.0674 16.0635 18.157 16.0635 18.2674V18.8674C16.0635 18.9779 15.9739 19.0674 15.8635 19.0674H4C2.89543 19.0674 2 18.172 2 17.0674V8C2 6.89543 2.89543 6 4 6ZM20 18.0674H19.2635C19.153 18.0674 19.0635 18.157 19.0635 18.2674V18.8674C19.0635 18.9779 19.153 19.0674 19.2635 19.0674H20C21.1046 19.0674 22 18.172 22 17.0674V8C22 6.89543 21.1046 6 20 6H19.2635C19.153 6 19.0635 6.08954 19.0635 6.2V6.8C19.0635 6.91046 19.153 7 19.2635 7H20C20.5523 7 21 7.44772 21 8V17.0674C21 17.6197 20.5523 18.0674 20 18.0674Z" fill="black"/>
<path fill-rule="evenodd" clip-rule="evenodd" d="M9.5 9.7C9.5 9.58954 9.58954 9.5 9.7 9.5H12.8C12.9105 9.5 13 9.41046 13 9.3V8.7C13 8.58954 12.9105 8.5 12.8 8.5H5.2C5.08954 8.5 5 8.58954 5 8.7V9.3C5 9.41046 5.08954 9.5 5.2 9.5H8.3C8.41046 9.5 8.5 9.58954 8.5 9.7V16.8C8.5 16.9105 8.58954 17 8.7 17H9.3C9.41046 17 9.5 16.9105 9.5 16.8V9.7Z" fill="black"/>
</svg>
